<svg width="72" height="32" viewBox="0 0 72 32" fill="none" xmlns="http://www.w3.org/2000/svg">
<path d="M30.8218 12.2094V11.9131H32.1956V12.2094C32.1956 12.3261 32.1844 12.4384 32.1619 12.5461C32.1395 12.6943 32.0991 12.8379 32.0407 12.9771C31.9285 13.2151 31.7781 13.4305 31.5895 13.6236C31.3965 13.8077 31.1787 13.9513 30.9363 14.0546C30.6984 14.1534 30.447 14.205 30.1821 14.2095H29.5895C29.3156 14.2095 29.053 14.1578 28.8016 14.0546C28.604 13.9693 28.4267 13.8615 28.2696 13.7313C28.2426 13.7134 28.2202 13.6932 28.2022 13.6707C28.0047 13.4777 27.8543 13.2622 27.751 13.0242C27.6747 12.8626 27.6253 12.6943 27.6029 12.5192C27.5939 12.4339 27.5894 12.3486 27.5894 12.2633V9.27329C27.5894 9.16554 27.5984 9.05779 27.6163 8.95005C27.6478 8.80189 27.6927 8.65598 27.751 8.51232C27.8633 8.26989 28.0137 8.05664 28.2022 7.87257C28.3863 7.68401 28.6018 7.5381 28.8487 7.43485C29.0911 7.33159 29.3493 7.27996 29.6231 7.27996H30.2225C30.4829 7.28445 30.7365 7.33608 30.9834 7.43485C31.181 7.51566 31.3583 7.62116 31.5154 7.75135L31.5895 7.82543C31.7736 8.0095 31.9217 8.22275 32.034 8.46518C32.1058 8.63129 32.1552 8.80189 32.1821 8.97698C32.1911 9.06228 32.1956 9.14758 32.1956 9.23288V9.6302H30.8218V9.23288C30.8218 9.04433 30.759 8.88944 30.6333 8.76822L30.6198 8.75475H30.6131C30.4963 8.67843 30.3661 8.63803 30.2225 8.63354H29.6231C29.4346 8.63354 29.2774 8.69415 29.1517 8.81536C29.026 8.93658 28.9632 9.08922 28.9632 9.27329V12.2633C28.9632 12.4204 29.0103 12.5551 29.1046 12.6673C29.127 12.6898 29.1517 12.71 29.1787 12.7279C29.2954 12.8177 29.4323 12.8626 29.5895 12.8626H30.1821C30.3617 12.8581 30.512 12.7953 30.6333 12.6741C30.759 12.5484 30.8218 12.3935 30.8218 12.2094ZM37.9481 13.0175H38.0491C38.0895 13.022 38.1344 13.0242 38.1838 13.0242C38.2287 13.0242 38.2601 13.022 38.2781 13.0175V14.2095H37.9414C37.663 14.2095 37.4341 14.1736 37.2545 14.1017C37.0749 14.0254 36.92 13.9221 36.7898 13.792C36.7764 13.8009 36.7674 13.8077 36.7629 13.8122C36.7584 13.8122 36.7539 13.8144 36.7494 13.8189C36.6237 13.9087 36.4913 13.985 36.3521 14.0479C36.1097 14.1511 35.856 14.205 35.5912 14.2095H34.9985C34.7292 14.2095 34.4665 14.1556 34.2106 14.0479C34.0131 13.967 33.8358 13.8593 33.6786 13.7246L33.6113 13.6573C33.4138 13.4642 33.2634 13.2465 33.1601 13.004C33.0883 12.8424 33.0389 12.6718 33.0119 12.4922C33.003 12.4025 32.9985 12.3149 32.9985 12.2296V10.6471C32.9985 10.5348 33.0075 10.4248 33.0254 10.3171C33.0568 10.16 33.1017 10.0118 33.1601 9.87263C33.2723 9.62122 33.4227 9.40348 33.6113 9.21941C33.7954 9.02637 34.0109 8.87821 34.2578 8.77496C34.5002 8.66721 34.7584 8.61333 35.0322 8.61333H35.6316C35.8336 8.61782 36.0334 8.6515 36.2309 8.71435V8.61333H37.6182V12.4114C37.6182 12.591 37.6339 12.7279 37.6653 12.8222C37.7012 12.9255 37.7955 12.9906 37.9481 13.0175ZM36.2309 12.1757V10.5999C36.2309 10.4159 36.168 10.2587 36.0423 10.1285L36.0289 10.1151H36.0221C35.9054 10.0343 35.7752 9.99385 35.6316 9.99385H35.0322C34.8437 9.99385 34.6865 10.0545 34.5608 10.1757C34.4351 10.3014 34.3723 10.4585 34.3723 10.6471V12.2296C34.3723 12.3867 34.4194 12.5237 34.5137 12.6404C34.5361 12.6628 34.5631 12.6853 34.5945 12.7077C34.7067 12.793 34.8414 12.8357 34.9985 12.8357H35.5912C35.7707 12.8312 35.9211 12.7683 36.0423 12.6471C36.168 12.5214 36.2309 12.3643 36.2309 12.1757ZM42.5125 11.4417C42.7639 11.6662 42.8896 11.9962 42.8896 12.4316C42.8896 13.0332 42.6808 13.4867 42.2633 13.792C41.8907 14.0703 41.4058 14.2095 40.8087 14.2095C40.4765 14.2095 40.16 14.1534 39.8592 14.0411C39.5629 13.9289 39.3384 13.7807 39.1858 13.5967C39.0556 13.4395 38.959 13.2779 38.8962 13.1118C38.8423 12.9816 38.8064 12.8357 38.7884 12.6741L38.7413 12.3778L40.1084 12.169L40.1622 12.4518C40.1981 12.582 40.2565 12.683 40.3373 12.7549C40.4406 12.8536 40.5977 12.9187 40.8087 12.9502C40.8356 12.9592 40.8783 12.9636 40.9367 12.9636C41.0938 12.9636 41.2307 12.921 41.3475 12.8357C41.4642 12.7549 41.5225 12.6449 41.5225 12.5057C41.5225 12.4025 41.4844 12.3059 41.4081 12.2161C41.3272 12.1264 41.2285 12.068 41.1118 12.0411L40.0612 11.7919C39.6976 11.7066 39.3923 11.545 39.1454 11.307C38.8939 11.0691 38.7682 10.7234 38.7682 10.27C38.7682 9.97365 38.8176 9.72224 38.9164 9.51572C39.0152 9.31369 39.1745 9.13411 39.3945 8.97698C39.7716 8.69863 40.2565 8.55946 40.8491 8.55946C41.1454 8.55946 41.453 8.61782 41.7717 8.73455C42.0949 8.84679 42.3284 8.9927 42.4721 9.17228C42.6023 9.32941 42.6988 9.49327 42.7616 9.66387C42.811 9.78509 42.8469 9.91977 42.8694 10.0679V10.0814L42.9165 10.4114L41.5562 10.6269L41.5225 10.4518V10.445C41.4866 10.2565 41.4148 10.1128 41.307 10.0141C41.1948 9.91528 41.0422 9.84794 40.8491 9.81203C40.8222 9.80754 40.7795 9.80529 40.7212 9.80529C40.564 9.80529 40.4271 9.84794 40.3104 9.93324C40.1937 10.0141 40.1353 10.124 40.1353 10.2632C40.1353 10.3665 40.1757 10.463 40.2565 10.5528C40.3328 10.6426 40.4294 10.7009 40.5461 10.7279L41.6034 10.977C41.967 11.0579 42.27 11.2127 42.5125 11.4417ZM45.3737 7.28669V8.68741H43.9662V7.28669H45.3737ZM43.9662 9.48205H45.3737V14.2095H43.9662V9.48205ZM48.1156 8.72108C48.3086 8.65823 48.5084 8.6268 48.7149 8.6268H49.3143C49.5836 8.6268 49.8418 8.67843 50.0887 8.78169C50.3356 8.88944 50.5511 9.03535 50.7352 9.21941C50.9237 9.40797 51.0719 9.62571 51.1796 9.87263C51.2425 10.0208 51.2896 10.1712 51.3211 10.3238C51.339 10.4316 51.348 10.5416 51.348 10.6538V14.2095H49.9742V10.6538C49.9742 10.4697 49.9091 10.3126 49.7789 10.1824C49.6577 10.0567 49.5028 9.99385 49.3143 9.99385H48.7149C48.5713 9.99834 48.4411 10.0387 48.3243 10.1151C48.3243 10.1196 48.3221 10.1218 48.3176 10.1218C48.3131 10.1308 48.3086 10.1375 48.3041 10.142C48.1784 10.2632 48.1156 10.4181 48.1156 10.6067V14.2095H46.7283V8.6268H48.1156V8.72108ZM56.9853 10.5999V12.1757C56.9853 12.2925 56.9741 12.4069 56.9516 12.5192C56.9292 12.6673 56.8888 12.8132 56.8304 12.9569C56.7227 13.1993 56.5723 13.4171 56.3792 13.6101C56.1907 13.7987 55.9752 13.9446 55.7327 14.0479C55.4903 14.1511 55.2366 14.205 54.9718 14.2095H54.3792C54.1098 14.2095 53.8472 14.1556 53.5913 14.0479C53.3937 13.967 53.2164 13.8593 53.0592 13.7246L52.9919 13.6573C52.7944 13.4642 52.644 13.2465 52.5407 13.004C52.4689 12.8424 52.4195 12.6718 52.3926 12.4922C52.3836 12.4025 52.3791 12.3149 52.3791 12.2296V10.6471C52.3791 10.5348 52.3881 10.4248 52.406 10.3171C52.4375 10.16 52.4824 10.0118 52.5407 9.87263C52.653 9.62122 52.8033 9.40348 52.9919 9.21941C53.176 9.02637 53.3915 8.87821 53.6384 8.77496C53.8808 8.66721 54.139 8.61333 54.4128 8.61333H55.0122C55.2726 8.61782 55.5262 8.6717 55.7731 8.77496C55.9707 8.85577 56.148 8.96351 56.3051 9.0982C56.3276 9.12065 56.3523 9.14309 56.3792 9.16554C56.5633 9.3541 56.7114 9.57184 56.8237 9.81876C56.8955 9.98936 56.9449 10.1645 56.9718 10.344C56.9808 10.4293 56.9853 10.5146 56.9853 10.5999ZM55.423 12.6471C55.5487 12.5214 55.6115 12.3643 55.6115 12.1757V10.5999C55.6115 10.4159 55.5487 10.2587 55.423 10.1285L55.4095 10.1151H55.4028C55.286 10.0343 55.1558 9.99385 55.0122 9.99385H54.4128C54.2243 9.99385 54.0671 10.0545 53.9414 10.1757C53.8157 10.3014 53.7529 10.4585 53.7529 10.6471V12.2296C53.7529 12.3867 53.8 12.5237 53.8943 12.6404C53.9167 12.6628 53.9437 12.6853 53.9751 12.7077C54.0873 12.793 54.222 12.8357 54.3792 12.8357H54.9718C55.1513 12.8312 55.3017 12.7683 55.423 12.6471ZM32.1956 20.5393C32.2989 20.7907 32.3505 21.0533 32.3505 21.3272V26.2095H30.9969V24.499H29.9733V23.1521H30.9969V21.28C30.9969 21.087 30.9318 20.9276 30.8016 20.8019C30.6714 20.6762 30.5098 20.6133 30.3168 20.6133H29.5221C29.3964 20.6133 29.2685 20.6762 29.1383 20.8019C29.0126 20.9276 28.9497 21.087 28.9497 21.28V26.2095H27.5894V21.3272C27.5894 21.0533 27.6433 20.7907 27.751 20.5393C27.8633 20.2878 28.0137 20.0679 28.2022 19.8793C28.3863 19.6907 28.6018 19.5426 28.8487 19.4348C29.0821 19.3361 29.3313 19.2844 29.5962 19.28H30.3235C30.5973 19.28 30.8577 19.3316 31.1047 19.4348C31.3561 19.5426 31.5761 19.6907 31.7646 19.8793C31.9487 20.0679 32.0923 20.2878 32.1956 20.5393ZM35.0878 20.7211C35.2808 20.6582 35.4806 20.6268 35.6871 20.6268H36.2864C36.5558 20.6268 36.814 20.6784 37.0609 20.7817C37.3078 20.8894 37.5233 21.0353 37.7074 21.2194C37.8959 21.408 38.0441 21.6257 38.1518 21.8726C38.2147 22.0208 38.2618 22.1712 38.2932 22.3238C38.3112 22.4316 38.3202 22.5416 38.3202 22.6538V26.2095H36.9464V22.6538C36.9464 22.4697 36.8813 22.3126 36.7511 22.1824C36.6299 22.0567 36.475 21.9938 36.2864 21.9938H35.6871C35.5434 21.9983 35.4132 22.0387 35.2965 22.1151C35.2965 22.1196 35.2943 22.1218 35.2898 22.1218C35.2853 22.1308 35.2808 22.1375 35.2763 22.142C35.1506 22.2632 35.0878 22.4181 35.0878 22.6067V26.2095H33.7005V20.6268H35.0878V20.7211ZM44.3009 25.0175H44.4019C44.4423 25.022 44.4872 25.0242 44.5366 25.0242C44.5815 25.0242 44.6129 25.022 44.6309 25.0175V26.2095H44.2942C44.0158 26.2095 43.7869 26.1736 43.6073 26.1017C43.4277 26.0254 43.2728 25.9221 43.1426 25.792C43.1292 25.8009 43.1202 25.8077 43.1157 25.8122C43.1112 25.8122 43.1067 25.8144 43.1022 25.8189C42.9765 25.9087 42.8441 25.985 42.7049 26.0479C42.4625 26.1511 42.2088 26.205 41.9439 26.2095H41.3513C41.082 26.2095 40.8193 26.1556 40.5634 26.0479C40.3659 25.967 40.1886 25.8593 40.0314 25.7246L39.9641 25.6573C39.7665 25.4642 39.6161 25.2465 39.5129 25.004C39.4411 24.8424 39.3917 24.6718 39.3647 24.4922C39.3558 24.4025 39.3513 24.3149 39.3513 24.2296V22.6471C39.3513 22.5348 39.3602 22.4248 39.3782 22.3171C39.4096 22.16 39.4545 22.0118 39.5129 21.8726C39.6251 21.6212 39.7755 21.4035 39.9641 21.2194C40.1481 21.0264 40.3636 20.8782 40.6106 20.775C40.853 20.6672 41.1111 20.6133 41.385 20.6133H41.9843C42.1864 20.6178 42.3862 20.6515 42.5837 20.7143V20.6133H43.9709V24.4114C43.9709 24.591 43.9867 24.7279 44.0181 24.8222C44.054 24.9255 44.1483 24.9906 44.3009 25.0175ZM42.5837 24.1757V22.5999C42.5837 22.4159 42.5208 22.2587 42.3951 22.1285L42.3817 22.1151H42.3749C42.2582 22.0343 42.128 21.9938 41.9843 21.9938H41.385C41.1964 21.9938 41.0393 22.0545 40.9136 22.1757C40.7879 22.3014 40.725 22.4585 40.725 22.6471V24.2296C40.725 24.3867 40.7722 24.5237 40.8665 24.6404C40.8889 24.6628 40.9159 24.6853 40.9473 24.7077C41.0595 24.793 41.1942 24.8357 41.3513 24.8357H41.9439C42.1235 24.8312 42.2739 24.7683 42.3951 24.6471C42.5208 24.5214 42.5837 24.3643 42.5837 24.1757ZM47.099 25.0377H47.2607V26.2095H47.099C46.7444 26.2095 46.4638 26.1825 46.2573 26.1287C46.0418 26.0703 45.8532 25.9581 45.6916 25.792C45.5659 25.6662 45.4828 25.5158 45.4424 25.3408C45.402 25.1702 45.3818 24.9479 45.3818 24.6741V19.2867H46.7556V24.5865C46.7646 24.7392 46.796 24.8536 46.8499 24.93C46.8948 24.9973 46.9778 25.0332 47.099 25.0377ZM52.6235 20.5931V26.8896C52.6235 27.168 52.5719 27.4284 52.4686 27.6708C52.3609 27.9222 52.2105 28.1399 52.0174 28.324C51.8244 28.5171 51.5977 28.6652 51.3373 28.7685C51.0904 28.8717 50.8322 28.9256 50.5628 28.9301H50.1116C49.8333 28.9301 49.5662 28.8762 49.3103 28.7685C49.0589 28.6652 48.8366 28.5171 48.6436 28.324C48.446 28.131 48.2912 27.911 48.1789 27.6641C48.0712 27.4261 48.0173 27.168 48.0173 26.8896V26.4115H49.4248V26.9368C49.4248 27.1253 49.4876 27.2825 49.6133 27.4082C49.7435 27.5339 49.9051 27.5967 50.0982 27.5967H50.5359C50.7289 27.5922 50.8928 27.5294 51.0275 27.4082C51.1757 27.2825 51.2497 27.1253 51.2497 26.9368V26.1017C51.0432 26.1736 50.83 26.2117 50.61 26.2162H50.0174C49.748 26.2162 49.4854 26.1623 49.2295 26.0546C49.0319 25.9738 48.8546 25.8638 48.6975 25.7246C48.675 25.7067 48.6526 25.6864 48.6301 25.664C48.4326 25.4665 48.2822 25.2487 48.1789 25.0108C48.1071 24.8447 48.0577 24.6718 48.0308 24.4922C48.0218 24.4069 48.0173 24.3194 48.0173 24.2296V20.5931H49.3911V24.2296C49.3911 24.3912 49.4382 24.5304 49.5325 24.6471C49.5549 24.6696 49.5819 24.6898 49.6133 24.7077C49.7256 24.793 49.8602 24.8357 50.0174 24.8357H50.61C50.7896 24.8357 50.94 24.7751 51.0612 24.6539C51.1779 24.5371 51.2407 24.3912 51.2497 24.2161V20.5931H52.6235ZM56.2306 20.6133H57.6044V21.9198H56.2306V26.2095H54.8299V25.6438L54.8232 21.9198H53.4494V20.6133H54.8232V19.2867H56.2306V20.6133ZM59.8401 19.2867V20.6874H58.4327V19.2867H59.8401ZM58.4327 21.482H59.8401V26.2095H58.4327V21.482ZM64.151 24.1757V24.1488H65.5247V24.1757C65.5247 24.2925 65.5135 24.4069 65.4911 24.5192C65.4686 24.6673 65.4282 24.8132 65.3699 24.9569C65.2621 25.1993 65.1117 25.4171 64.9187 25.6101C64.7301 25.7987 64.5146 25.9446 64.2722 26.0479C64.0297 26.1511 63.7761 26.205 63.5112 26.2095H62.9186C62.6492 26.2095 62.3866 26.1556 62.1307 26.0479C61.9332 25.967 61.7558 25.8593 61.5987 25.7246L61.5313 25.6573C61.3338 25.4642 61.1834 25.2465 61.0802 25.004C61.0083 24.8424 60.9589 24.6718 60.932 24.4922C60.923 24.4025 60.9185 24.3149 60.9185 24.2296V22.6471C60.9185 22.5348 60.9275 22.4248 60.9455 22.3171C60.9769 22.16 61.0218 22.0118 61.0802 21.8726C61.1924 21.6212 61.3428 21.4035 61.5313 21.2194C61.7154 21.0264 61.9309 20.8782 62.1778 20.775C62.4203 20.6672 62.6784 20.6133 62.9523 20.6133H63.5516C63.812 20.6178 64.0657 20.6717 64.3126 20.775C64.5101 20.8558 64.6875 20.9635 64.8446 21.0982C64.867 21.1206 64.8917 21.1431 64.9187 21.1655C65.1027 21.3541 65.2509 21.5718 65.3631 21.8188C65.435 21.9894 65.4843 22.1645 65.5113 22.344C65.5203 22.4293 65.5247 22.5146 65.5247 22.5999V22.6471H64.151V22.5999C64.151 22.4159 64.0881 22.2587 63.9624 22.1285L63.9489 22.1151H63.9422C63.8255 22.0343 63.6953 21.9938 63.5516 21.9938H62.9523C62.7637 21.9938 62.6066 22.0545 62.4809 22.1757C62.3552 22.3014 62.2923 22.4585 62.2923 22.6471V24.2296C62.2923 24.3867 62.3395 24.5237 62.4337 24.6404C62.4562 24.6628 62.4831 24.6853 62.5145 24.7077C62.6268 24.793 62.7615 24.8357 62.9186 24.8357H63.5112C63.6908 24.8312 63.8412 24.7683 63.9624 24.6471C64.0881 24.5214 64.151 24.3643 64.151 24.1757ZM70.2829 23.4417C70.5343 23.6662 70.66 23.9962 70.66 24.4316C70.66 25.0332 70.4513 25.4867 70.0337 25.792C69.6611 26.0703 69.1763 26.2095 68.5792 26.2095C68.2469 26.2095 67.9304 26.1534 67.6296 26.0411C67.3333 25.9289 67.1088 25.7807 66.9562 25.5967C66.826 25.4395 66.7295 25.2779 66.6666 25.1118C66.6128 24.9816 66.5768 24.8357 66.5589 24.6741L66.5117 24.3778L67.8788 24.169L67.9327 24.4518C67.9686 24.582 68.0269 24.683 68.1078 24.7549C68.211 24.8536 68.3681 24.9187 68.5792 24.9502C68.6061 24.9592 68.6487 24.9636 68.7071 24.9636C68.8642 24.9636 69.0012 24.921 69.1179 24.8357C69.2346 24.7549 69.293 24.6449 69.293 24.5057C69.293 24.4025 69.2548 24.3059 69.1785 24.2161C69.0977 24.1264 68.9989 24.068 68.8822 24.0411L67.8317 23.7919C67.468 23.7066 67.1627 23.545 66.9158 23.307C66.6644 23.0691 66.5387 22.7234 66.5387 22.27C66.5387 21.9736 66.5881 21.7222 66.6868 21.5157C66.7856 21.3137 66.945 21.1341 67.165 20.977C67.5421 20.6986 68.0269 20.5595 68.6196 20.5595C68.9159 20.5595 69.2234 20.6178 69.5421 20.7346C69.8654 20.8468 70.0988 20.9927 70.2425 21.1723C70.3727 21.3294 70.4692 21.4933 70.5321 21.6639C70.5815 21.7851 70.6174 21.9198 70.6398 22.0679V22.0814L70.687 22.4114L69.3267 22.6269L69.293 22.4518V22.445C69.2571 22.2565 69.1852 22.1128 69.0775 22.0141C68.9652 21.9153 68.8126 21.8479 68.6196 21.812C68.5926 21.8075 68.55 21.8053 68.4916 21.8053C68.3345 21.8053 68.1975 21.8479 68.0808 21.9332C67.9641 22.0141 67.9057 22.124 67.9057 22.2632C67.9057 22.3665 67.9461 22.463 68.0269 22.5528C68.1033 22.6426 68.1998 22.7009 68.3165 22.7279L69.3738 22.977C69.7374 23.0579 70.0405 23.2127 70.2829 23.4417Z" fill="white"/>
<g clip-path="url(#clip0_891_23563)">
<path fill-rule="evenodd" clip-rule="evenodd" d="M3.12566 20.97C2.51755 20.14 1.63986 19.7392 1.16149 20.0749C0.685138 20.4105 0.790542 21.3565 1.39865 22.1865C2.00472 23.0165 2.88444 23.4173 3.36079 23.0816C3.83917 22.746 3.73376 21.8 3.12566 20.97ZM5.54996 19.2611C4.94389 18.4311 4.06416 18.0304 3.58782 18.366C3.10944 18.7017 3.21485 19.6477 3.82295 20.4777C4.42903 21.3077 5.30875 21.7085 5.78712 21.3728C6.26144 21.0392 6.15604 20.0932 5.54996 19.2611ZM7.97224 17.5543C7.36616 16.7243 6.48644 16.3236 6.01009 16.6592C5.53375 16.9949 5.63712 17.9409 6.24523 18.7729C6.8513 19.6029 7.73102 20.0037 8.2094 19.668C8.68372 19.3303 8.57831 18.3864 7.97224 17.5543ZM15.5492 21.4969C15.7397 20.6343 16.5019 19.7351 17.2519 19.489C18.0019 19.2408 18.458 19.7392 18.2694 20.5997C18.0789 21.4623 17.3168 22.3615 16.5668 22.6097C15.8147 22.8558 15.3607 22.3574 15.5492 21.4969ZM12.1094 19.0699C12.2979 18.2074 13.0621 17.3082 13.8121 17.06C14.5641 16.8118 15.0181 17.3102 14.8296 18.1707C14.6411 19.0333 13.8769 19.9325 13.1269 20.1807C12.3749 20.4289 11.9188 19.9304 12.1094 19.0699ZM18.4539 12.5275L11.5236 16.5433C10.883 16.9155 10.5141 17.5523 10.5121 18.2969L10.4898 26.3101C10.4878 26.6621 10.6621 26.9652 10.9661 27.1422C11.2702 27.3192 11.6168 27.3192 11.9209 27.1422L14.8864 25.4252L18.8512 23.1284C19.4938 22.7561 19.8607 22.1194 19.8627 21.3769L19.8748 16.7894L19.885 13.3615C19.885 13.0096 19.7127 12.7065 19.4086 12.5295C19.1066 12.3505 18.758 12.3505 18.4539 12.5275ZM2.00878 11.551L8.92493 15.5586C9.5675 15.9309 10.3033 15.9309 10.9479 15.5586L17.864 11.551C18.1681 11.374 18.3424 11.0729 18.3424 10.721C18.3424 10.369 18.1681 10.0679 17.864 9.893L14.9026 8.17601L12.01 6.49971L11.0817 5.96061L10.4148 5.57409C10.1107 5.39913 9.76412 5.39913 9.46006 5.57409L4.97024 8.17601L2.00878 9.893C1.70472 10.0679 1.53243 10.3711 1.53243 10.721C1.53243 11.0729 1.70472 11.374 2.00878 11.551ZM1.45743 12.5661L8.3594 16.5656C9.00399 16.94 9.3729 17.5828 9.37088 18.3294L9.34655 26.3468C9.34655 26.6987 9.17223 26.9998 8.86818 27.1747C8.56413 27.3497 8.21751 27.3497 7.91548 27.1747L4.95605 25.4598L1.01149 23.1752C0.366897 22.8009 -0.0020187 22.158 8.30936e-06 21.4114L0.0141974 16.8342L0.0243324 13.3961C0.0263594 13.0442 0.200682 12.7431 0.502707 12.5682C0.806758 12.3912 1.15338 12.3912 1.45743 12.5661Z" fill="white"/>
<path d="M9.28595 9.51168L8.96203 9.2816C8.8083 9.17241 8.62506 9.11603 8.4123 9.11245L8.40111 9.11213C8.39365 9.11191 8.38801 9.113 8.38421 9.11539C8.22692 9.13086 8.08371 9.17667 7.95456 9.25283L7.52107 9.52491C7.43671 9.60235 7.38395 9.68443 7.3628 9.77116C7.34065 9.8928 7.41743 10.016 7.59311 10.1408C7.77246 10.2682 7.95359 10.3332 8.13649 10.336C8.34193 10.3344 8.63074 10.2902 9.00292 10.2035L10.0244 9.937C10.2989 9.87247 10.5612 9.84004 10.8114 9.8397C11.114 9.83586 11.4231 9.86715 11.7386 9.93355C12.0579 9.99756 12.3439 10.1193 12.5964 10.2986C13.0759 10.6392 13.3072 11.0401 13.2903 11.5012C13.2806 11.708 13.2078 11.9056 13.0717 12.0938C13.0292 12.145 12.9847 12.1974 12.9384 12.251L13.3611 12.5512L12.1918 13.2851L11.7801 12.9926C11.6745 13.0296 11.5653 13.0614 11.4525 13.0881C11.2231 13.1439 10.9869 13.1771 10.7438 13.1876L10.6319 13.1844C10.3221 13.1781 10.019 13.1332 9.72266 13.0499C9.52274 12.9893 9.33999 12.9155 9.17443 12.8284C9.10095 12.7864 9.02943 12.7407 8.95989 12.6913L8.62498 12.4534L9.79427 11.7195L10.1292 11.9574C10.2792 12.064 10.4569 12.119 10.6622 12.1223L10.6846 12.123C10.6921 12.1232 10.6976 12.1246 10.7013 12.1272C10.8587 12.1067 11.0001 12.0596 11.1254 11.9858L11.5589 11.7138C11.6508 11.6365 11.7017 11.5532 11.7117 11.4636C11.7377 11.3396 11.6665 11.2178 11.4981 11.0982C11.3151 10.9682 11.1321 10.9018 10.9492 10.8991C10.7401 10.8981 10.4494 10.9435 10.0771 11.0352L9.06678 11.302C8.78867 11.3639 8.5226 11.3962 8.26859 11.399C7.96979 11.4004 7.66073 11.3691 7.3414 11.3051C7.02588 11.2387 6.74184 11.1158 6.48929 10.9364C6.00981 10.5959 5.77852 10.195 5.79542 9.73389C5.80506 9.52706 5.87792 9.32952 6.014 9.14127C6.04908 9.08988 6.09162 9.03869 6.14162 8.98772L5.71887 8.68745L6.88816 7.95355L7.29992 8.24602C7.40188 8.20652 7.50925 8.1734 7.62205 8.14668C7.8589 8.09106 8.09695 8.05918 8.33618 8.05104L8.44812 8.05424C8.7617 8.0582 9.06477 8.10304 9.35734 8.18875C9.55741 8.24436 9.74015 8.3182 9.90557 8.41026C9.98286 8.4499 10.0581 8.49571 10.1313 8.54771L10.4552 8.77778L9.28595 9.51168Z" fill="black"/>
</g>
<path d="M30.8218 12.2094V11.9131H32.1956V12.2094C32.1956 12.3261 32.1844 12.4384 32.1619 12.5461C32.1395 12.6943 32.0991 12.8379 32.0407 12.9771C31.9285 13.2151 31.7781 13.4305 31.5895 13.6236C31.3965 13.8077 31.1787 13.9513 30.9363 14.0546C30.6984 14.1534 30.447 14.205 30.1821 14.2095H29.5895C29.3156 14.2095 29.053 14.1578 28.8016 14.0546C28.604 13.9693 28.4267 13.8615 28.2696 13.7313C28.2426 13.7134 28.2202 13.6932 28.2022 13.6707C28.0047 13.4777 27.8543 13.2622 27.751 13.0242C27.6747 12.8626 27.6253 12.6943 27.6029 12.5192C27.5939 12.4339 27.5894 12.3486 27.5894 12.2633V9.27329C27.5894 9.16554 27.5984 9.05779 27.6163 8.95005C27.6478 8.80189 27.6927 8.65598 27.751 8.51232C27.8633 8.26989 28.0137 8.05664 28.2022 7.87257C28.3863 7.68401 28.6018 7.5381 28.8487 7.43485C29.0911 7.33159 29.3493 7.27996 29.6231 7.27996H30.2225C30.4829 7.28445 30.7365 7.33608 30.9834 7.43485C31.181 7.51566 31.3583 7.62116 31.5154 7.75135L31.5895 7.82543C31.7736 8.0095 31.9217 8.22275 32.034 8.46518C32.1058 8.63129 32.1552 8.80189 32.1821 8.97698C32.1911 9.06228 32.1956 9.14758 32.1956 9.23288V9.6302H30.8218V9.23288C30.8218 9.04433 30.759 8.88944 30.6333 8.76822L30.6198 8.75475H30.6131C30.4963 8.67843 30.3661 8.63803 30.2225 8.63354H29.6231C29.4346 8.63354 29.2774 8.69415 29.1517 8.81536C29.026 8.93658 28.9632 9.08922 28.9632 9.27329V12.2633C28.9632 12.4204 29.0103 12.5551 29.1046 12.6673C29.127 12.6898 29.1517 12.71 29.1787 12.7279C29.2954 12.8177 29.4323 12.8626 29.5895 12.8626H30.1821C30.3617 12.8581 30.512 12.7953 30.6333 12.6741C30.759 12.5484 30.8218 12.3935 30.8218 12.2094ZM37.9481 13.0175H38.0491C38.0895 13.022 38.1344 13.0242 38.1838 13.0242C38.2287 13.0242 38.2601 13.022 38.2781 13.0175V14.2095H37.9414C37.663 14.2095 37.4341 14.1736 37.2545 14.1017C37.0749 14.0254 36.92 13.9221 36.7898 13.792C36.7764 13.8009 36.7674 13.8077 36.7629 13.8122C36.7584 13.8122 36.7539 13.8144 36.7494 13.8189C36.6237 13.9087 36.4913 13.985 36.3521 14.0479C36.1097 14.1511 35.856 14.205 35.5912 14.2095H34.9985C34.7292 14.2095 34.4665 14.1556 34.2106 14.0479C34.0131 13.967 33.8358 13.8593 33.6786 13.7246L33.6113 13.6573C33.4138 13.4642 33.2634 13.2465 33.1601 13.004C33.0883 12.8424 33.0389 12.6718 33.0119 12.4922C33.003 12.4025 32.9985 12.3149 32.9985 12.2296V10.6471C32.9985 10.5348 33.0075 10.4248 33.0254 10.3171C33.0568 10.16 33.1017 10.0118 33.1601 9.87263C33.2723 9.62122 33.4227 9.40348 33.6113 9.21941C33.7954 9.02637 34.0109 8.87821 34.2578 8.77496C34.5002 8.66721 34.7584 8.61333 35.0322 8.61333H35.6316C35.8336 8.61782 36.0334 8.6515 36.2309 8.71435V8.61333H37.6182V12.4114C37.6182 12.591 37.6339 12.7279 37.6653 12.8222C37.7012 12.9255 37.7955 12.9906 37.9481 13.0175ZM36.2309 12.1757V10.5999C36.2309 10.4159 36.168 10.2587 36.0423 10.1285L36.0289 10.1151H36.0221C35.9054 10.0343 35.7752 9.99385 35.6316 9.99385H35.0322C34.8437 9.99385 34.6865 10.0545 34.5608 10.1757C34.4351 10.3014 34.3723 10.4585 34.3723 10.6471V12.2296C34.3723 12.3867 34.4194 12.5237 34.5137 12.6404C34.5361 12.6628 34.5631 12.6853 34.5945 12.7077C34.7067 12.793 34.8414 12.8357 34.9985 12.8357H35.5912C35.7707 12.8312 35.9211 12.7683 36.0423 12.6471C36.168 12.5214 36.2309 12.3643 36.2309 12.1757ZM42.5125 11.4417C42.7639 11.6662 42.8896 11.9962 42.8896 12.4316C42.8896 13.0332 42.6808 13.4867 42.2633 13.792C41.8907 14.0703 41.4058 14.2095 40.8087 14.2095C40.4765 14.2095 40.16 14.1534 39.8592 14.0411C39.5629 13.9289 39.3384 13.7807 39.1858 13.5967C39.0556 13.4395 38.959 13.2779 38.8962 13.1118C38.8423 12.9816 38.8064 12.8357 38.7884 12.6741L38.7413 12.3778L40.1084 12.169L40.1622 12.4518C40.1981 12.582 40.2565 12.683 40.3373 12.7549C40.4406 12.8536 40.5977 12.9187 40.8087 12.9502C40.8356 12.9592 40.8783 12.9636 40.9367 12.9636C41.0938 12.9636 41.2307 12.921 41.3475 12.8357C41.4642 12.7549 41.5225 12.6449 41.5225 12.5057C41.5225 12.4025 41.4844 12.3059 41.4081 12.2161C41.3272 12.1264 41.2285 12.068 41.1118 12.0411L40.0612 11.7919C39.6976 11.7066 39.3923 11.545 39.1454 11.307C38.8939 11.0691 38.7682 10.7234 38.7682 10.27C38.7682 9.97365 38.8176 9.72224 38.9164 9.51572C39.0152 9.31369 39.1745 9.13411 39.3945 8.97698C39.7716 8.69863 40.2565 8.55946 40.8491 8.55946C41.1454 8.55946 41.453 8.61782 41.7717 8.73455C42.0949 8.84679 42.3284 8.9927 42.4721 9.17228C42.6023 9.32941 42.6988 9.49327 42.7616 9.66387C42.811 9.78509 42.8469 9.91977 42.8694 10.0679V10.0814L42.9165 10.4114L41.5562 10.6269L41.5225 10.4518V10.445C41.4866 10.2565 41.4148 10.1128 41.307 10.0141C41.1948 9.91528 41.0422 9.84794 40.8491 9.81203C40.8222 9.80754 40.7795 9.80529 40.7212 9.80529C40.564 9.80529 40.4271 9.84794 40.3104 9.93324C40.1937 10.0141 40.1353 10.124 40.1353 10.2632C40.1353 10.3665 40.1757 10.463 40.2565 10.5528C40.3328 10.6426 40.4294 10.7009 40.5461 10.7279L41.6034 10.977C41.967 11.0579 42.27 11.2127 42.5125 11.4417ZM45.3737 7.28669V8.68741H43.9662V7.28669H45.3737ZM43.9662 9.48205H45.3737V14.2095H43.9662V9.48205ZM48.1156 8.72108C48.3086 8.65823 48.5084 8.6268 48.7149 8.6268H49.3143C49.5836 8.6268 49.8418 8.67843 50.0887 8.78169C50.3356 8.88944 50.5511 9.03535 50.7352 9.21941C50.9237 9.40797 51.0719 9.62571 51.1796 9.87263C51.2425 10.0208 51.2896 10.1712 51.3211 10.3238C51.339 10.4316 51.348 10.5416 51.348 10.6538V14.2095H49.9742V10.6538C49.9742 10.4697 49.9091 10.3126 49.7789 10.1824C49.6577 10.0567 49.5028 9.99385 49.3143 9.99385H48.7149C48.5713 9.99834 48.4411 10.0387 48.3243 10.1151C48.3243 10.1196 48.3221 10.1218 48.3176 10.1218C48.3131 10.1308 48.3086 10.1375 48.3041 10.142C48.1784 10.2632 48.1156 10.4181 48.1156 10.6067V14.2095H46.7283V8.6268H48.1156V8.72108ZM56.9853 10.5999V12.1757C56.9853 12.2925 56.9741 12.4069 56.9516 12.5192C56.9292 12.6673 56.8888 12.8132 56.8304 12.9569C56.7227 13.1993 56.5723 13.4171 56.3792 13.6101C56.1907 13.7987 55.9752 13.9446 55.7327 14.0479C55.4903 14.1511 55.2366 14.205 54.9718 14.2095H54.3792C54.1098 14.2095 53.8472 14.1556 53.5913 14.0479C53.3937 13.967 53.2164 13.8593 53.0592 13.7246L52.9919 13.6573C52.7944 13.4642 52.644 13.2465 52.5407 13.004C52.4689 12.8424 52.4195 12.6718 52.3926 12.4922C52.3836 12.4025 52.3791 12.3149 52.3791 12.2296V10.6471C52.3791 10.5348 52.3881 10.4248 52.406 10.3171C52.4375 10.16 52.4824 10.0118 52.5407 9.87263C52.653 9.62122 52.8033 9.40348 52.9919 9.21941C53.176 9.02637 53.3915 8.87821 53.6384 8.77496C53.8808 8.66721 54.139 8.61333 54.4128 8.61333H55.0122C55.2726 8.61782 55.5262 8.6717 55.7731 8.77496C55.9707 8.85577 56.148 8.96351 56.3051 9.0982C56.3276 9.12065 56.3523 9.14309 56.3792 9.16554C56.5633 9.3541 56.7114 9.57184 56.8237 9.81876C56.8955 9.98936 56.9449 10.1645 56.9718 10.344C56.9808 10.4293 56.9853 10.5146 56.9853 10.5999ZM55.423 12.6471C55.5487 12.5214 55.6115 12.3643 55.6115 12.1757V10.5999C55.6115 10.4159 55.5487 10.2587 55.423 10.1285L55.4095 10.1151H55.4028C55.286 10.0343 55.1558 9.99385 55.0122 9.99385H54.4128C54.2243 9.99385 54.0671 10.0545 53.9414 10.1757C53.8157 10.3014 53.7529 10.4585 53.7529 10.6471V12.2296C53.7529 12.3867 53.8 12.5237 53.8943 12.6404C53.9167 12.6628 53.9437 12.6853 53.9751 12.7077C54.0873 12.793 54.222 12.8357 54.3792 12.8357H54.9718C55.1513 12.8312 55.3017 12.7683 55.423 12.6471ZM32.1956 20.5393C32.2989 20.7907 32.3505 21.0533 32.3505 21.3272V26.2095H30.9969V24.499H29.9733V23.1521H30.9969V21.28C30.9969 21.087 30.9318 20.9276 30.8016 20.8019C30.6714 20.6762 30.5098 20.6133 30.3168 20.6133H29.5221C29.3964 20.6133 29.2685 20.6762 29.1383 20.8019C29.0126 20.9276 28.9497 21.087 28.9497 21.28V26.2095H27.5894V21.3272C27.5894 21.0533 27.6433 20.7907 27.751 20.5393C27.8633 20.2878 28.0137 20.0679 28.2022 19.8793C28.3863 19.6907 28.6018 19.5426 28.8487 19.4348C29.0821 19.3361 29.3313 19.2844 29.5962 19.28H30.3235C30.5973 19.28 30.8577 19.3316 31.1047 19.4348C31.3561 19.5426 31.5761 19.6907 31.7646 19.8793C31.9487 20.0679 32.0923 20.2878 32.1956 20.5393ZM35.0878 20.7211C35.2808 20.6582 35.4806 20.6268 35.6871 20.6268H36.2864C36.5558 20.6268 36.814 20.6784 37.0609 20.7817C37.3078 20.8894 37.5233 21.0353 37.7074 21.2194C37.8959 21.408 38.0441 21.6257 38.1518 21.8726C38.2147 22.0208 38.2618 22.1712 38.2932 22.3238C38.3112 22.4316 38.3202 22.5416 38.3202 22.6538V26.2095H36.9464V22.6538C36.9464 22.4697 36.8813 22.3126 36.7511 22.1824C36.6299 22.0567 36.475 21.9938 36.2864 21.9938H35.6871C35.5434 21.9983 35.4132 22.0387 35.2965 22.1151C35.2965 22.1196 35.2943 22.1218 35.2898 22.1218C35.2853 22.1308 35.2808 22.1375 35.2763 22.142C35.1506 22.2632 35.0878 22.4181 35.0878 22.6067V26.2095H33.7005V20.6268H35.0878V20.7211ZM44.3009 25.0175H44.4019C44.4423 25.022 44.4872 25.0242 44.5366 25.0242C44.5815 25.0242 44.6129 25.022 44.6309 25.0175V26.2095H44.2942C44.0158 26.2095 43.7869 26.1736 43.6073 26.1017C43.4277 26.0254 43.2728 25.9221 43.1426 25.792C43.1292 25.8009 43.1202 25.8077 43.1157 25.8122C43.1112 25.8122 43.1067 25.8144 43.1022 25.8189C42.9765 25.9087 42.8441 25.985 42.7049 26.0479C42.4625 26.1511 42.2088 26.205 41.9439 26.2095H41.3513C41.082 26.2095 40.8193 26.1556 40.5634 26.0479C40.3659 25.967 40.1886 25.8593 40.0314 25.7246L39.9641 25.6573C39.7665 25.4642 39.6161 25.2465 39.5129 25.004C39.4411 24.8424 39.3917 24.6718 39.3647 24.4922C39.3558 24.4025 39.3513 24.3149 39.3513 24.2296V22.6471C39.3513 22.5348 39.3602 22.4248 39.3782 22.3171C39.4096 22.16 39.4545 22.0118 39.5129 21.8726C39.6251 21.6212 39.7755 21.4035 39.9641 21.2194C40.1481 21.0264 40.3636 20.8782 40.6106 20.775C40.853 20.6672 41.1111 20.6133 41.385 20.6133H41.9843C42.1864 20.6178 42.3862 20.6515 42.5837 20.7143V20.6133H43.9709V24.4114C43.9709 24.591 43.9867 24.7279 44.0181 24.8222C44.054 24.9255 44.1483 24.9906 44.3009 25.0175ZM42.5837 24.1757V22.5999C42.5837 22.4159 42.5208 22.2587 42.3951 22.1285L42.3817 22.1151H42.3749C42.2582 22.0343 42.128 21.9938 41.9843 21.9938H41.385C41.1964 21.9938 41.0393 22.0545 40.9136 22.1757C40.7879 22.3014 40.725 22.4585 40.725 22.6471V24.2296C40.725 24.3867 40.7722 24.5237 40.8665 24.6404C40.8889 24.6628 40.9159 24.6853 40.9473 24.7077C41.0595 24.793 41.1942 24.8357 41.3513 24.8357H41.9439C42.1235 24.8312 42.2739 24.7683 42.3951 24.6471C42.5208 24.5214 42.5837 24.3643 42.5837 24.1757ZM47.099 25.0377H47.2607V26.2095H47.099C46.7444 26.2095 46.4638 26.1825 46.2573 26.1287C46.0418 26.0703 45.8532 25.9581 45.6916 25.792C45.5659 25.6662 45.4828 25.5158 45.4424 25.3408C45.402 25.1702 45.3818 24.9479 45.3818 24.6741V19.2867H46.7556V24.5865C46.7646 24.7392 46.796 24.8536 46.8499 24.93C46.8948 24.9973 46.9778 25.0332 47.099 25.0377ZM52.6235 20.5931V26.8896C52.6235 27.168 52.5719 27.4284 52.4686 27.6708C52.3609 27.9222 52.2105 28.1399 52.0174 28.324C51.8244 28.5171 51.5977 28.6652 51.3373 28.7685C51.0904 28.8717 50.8322 28.9256 50.5628 28.9301H50.1116C49.8333 28.9301 49.5662 28.8762 49.3103 28.7685C49.0589 28.6652 48.8366 28.5171 48.6436 28.324C48.446 28.131 48.2912 27.911 48.1789 27.6641C48.0712 27.4261 48.0173 27.168 48.0173 26.8896V26.4115H49.4248V26.9368C49.4248 27.1253 49.4876 27.2825 49.6133 27.4082C49.7435 27.5339 49.9051 27.5967 50.0982 27.5967H50.5359C50.7289 27.5922 50.8928 27.5294 51.0275 27.4082C51.1757 27.2825 51.2497 27.1253 51.2497 26.9368V26.1017C51.0432 26.1736 50.83 26.2117 50.61 26.2162H50.0174C49.748 26.2162 49.4854 26.1623 49.2295 26.0546C49.0319 25.9738 48.8546 25.8638 48.6975 25.7246C48.675 25.7067 48.6526 25.6864 48.6301 25.664C48.4326 25.4665 48.2822 25.2487 48.1789 25.0108C48.1071 24.8447 48.0577 24.6718 48.0308 24.4922C48.0218 24.4069 48.0173 24.3194 48.0173 24.2296V20.5931H49.3911V24.2296C49.3911 24.3912 49.4382 24.5304 49.5325 24.6471C49.5549 24.6696 49.5819 24.6898 49.6133 24.7077C49.7256 24.793 49.8602 24.8357 50.0174 24.8357H50.61C50.7896 24.8357 50.94 24.7751 51.0612 24.6539C51.1779 24.5371 51.2407 24.3912 51.2497 24.2161V20.5931H52.6235ZM56.2306 20.6133H57.6044V21.9198H56.2306V26.2095H54.8299V25.6438L54.8232 21.9198H53.4494V20.6133H54.8232V19.2867H56.2306V20.6133ZM59.8401 19.2867V20.6874H58.4327V19.2867H59.8401ZM58.4327 21.482H59.8401V26.2095H58.4327V21.482ZM64.151 24.1757V24.1488H65.5247V24.1757C65.5247 24.2925 65.5135 24.4069 65.4911 24.5192C65.4686 24.6673 65.4282 24.8132 65.3699 24.9569C65.2621 25.1993 65.1117 25.4171 64.9187 25.6101C64.7301 25.7987 64.5146 25.9446 64.2722 26.0479C64.0297 26.1511 63.7761 26.205 63.5112 26.2095H62.9186C62.6492 26.2095 62.3866 26.1556 62.1307 26.0479C61.9332 25.967 61.7558 25.8593 61.5987 25.7246L61.5313 25.6573C61.3338 25.4642 61.1834 25.2465 61.0802 25.004C61.0083 24.8424 60.9589 24.6718 60.932 24.4922C60.923 24.4025 60.9185 24.3149 60.9185 24.2296V22.6471C60.9185 22.5348 60.9275 22.4248 60.9455 22.3171C60.9769 22.16 61.0218 22.0118 61.0802 21.8726C61.1924 21.6212 61.3428 21.4035 61.5313 21.2194C61.7154 21.0264 61.9309 20.8782 62.1778 20.775C62.4203 20.6672 62.6784 20.6133 62.9523 20.6133H63.5516C63.812 20.6178 64.0657 20.6717 64.3126 20.775C64.5101 20.8558 64.6875 20.9635 64.8446 21.0982C64.867 21.1206 64.8917 21.1431 64.9187 21.1655C65.1027 21.3541 65.2509 21.5718 65.3631 21.8188C65.435 21.9894 65.4843 22.1645 65.5113 22.344C65.5203 22.4293 65.5247 22.5146 65.5247 22.5999V22.6471H64.151V22.5999C64.151 22.4159 64.0881 22.2587 63.9624 22.1285L63.9489 22.1151H63.9422C63.8255 22.0343 63.6953 21.9938 63.5516 21.9938H62.9523C62.7637 21.9938 62.6066 22.0545 62.4809 22.1757C62.3552 22.3014 62.2923 22.4585 62.2923 22.6471V24.2296C62.2923 24.3867 62.3395 24.5237 62.4337 24.6404C62.4562 24.6628 62.4831 24.6853 62.5145 24.7077C62.6268 24.793 62.7615 24.8357 62.9186 24.8357H63.5112C63.6908 24.8312 63.8412 24.7683 63.9624 24.6471C64.0881 24.5214 64.151 24.3643 64.151 24.1757ZM70.2829 23.4417C70.5343 23.6662 70.66 23.9962 70.66 24.4316C70.66 25.0332 70.4513 25.4867 70.0337 25.792C69.6611 26.0703 69.1763 26.2095 68.5792 26.2095C68.2469 26.2095 67.9304 26.1534 67.6296 26.0411C67.3333 25.9289 67.1088 25.7807 66.9562 25.5967C66.826 25.4395 66.7295 25.2779 66.6666 25.1118C66.6128 24.9816 66.5768 24.8357 66.5589 24.6741L66.5117 24.3778L67.8788 24.169L67.9327 24.4518C67.9686 24.582 68.0269 24.683 68.1078 24.7549C68.211 24.8536 68.3681 24.9187 68.5792 24.9502C68.6061 24.9592 68.6487 24.9636 68.7071 24.9636C68.8642 24.9636 69.0012 24.921 69.1179 24.8357C69.2346 24.7549 69.293 24.6449 69.293 24.5057C69.293 24.4025 69.2548 24.3059 69.1785 24.2161C69.0977 24.1264 68.9989 24.068 68.8822 24.0411L67.8317 23.7919C67.468 23.7066 67.1627 23.545 66.9158 23.307C66.6644 23.0691 66.5387 22.7234 66.5387 22.27C66.5387 21.9736 66.5881 21.7222 66.6868 21.5157C66.7856 21.3137 66.945 21.1341 67.165 20.977C67.5421 20.6986 68.0269 20.5595 68.6196 20.5595C68.9159 20.5595 69.2234 20.6178 69.5421 20.7346C69.8654 20.8468 70.0988 20.9927 70.2425 21.1723C70.3727 21.3294 70.4692 21.4933 70.5321 21.6639C70.5815 21.7851 70.6174 21.9198 70.6398 22.0679V22.0814L70.687 22.4114L69.3267 22.6269L69.293 22.4518V22.445C69.2571 22.2565 69.1852 22.1128 69.0775 22.0141C68.9652 21.9153 68.8126 21.8479 68.6196 21.812C68.5926 21.8075 68.55 21.8053 68.4916 21.8053C68.3345 21.8053 68.1975 21.8479 68.0808 21.9332C67.9641 22.0141 67.9057 22.124 67.9057 22.2632C67.9057 22.3665 67.9461 22.463 68.0269 22.5528C68.1033 22.6426 68.1998 22.7009 68.3165 22.7279L69.3738 22.977C69.7374 23.0579 70.0405 23.2127 70.2829 23.4417Z" fill="black"/>
<g clip-path="url(#clip1_891_23563)">
<path fill-rule="evenodd" clip-rule="evenodd" d="M3.12566 20.97C2.51755 20.14 1.63986 19.7392 1.16149 20.0749C0.685138 20.4105 0.790542 21.3565 1.39865 22.1865C2.00472 23.0165 2.88444 23.4173 3.36079 23.0816C3.83917 22.746 3.73376 21.8 3.12566 20.97ZM5.54996 19.2611C4.94389 18.4311 4.06416 18.0304 3.58782 18.366C3.10944 18.7017 3.21485 19.6477 3.82295 20.4777C4.42903 21.3077 5.30875 21.7085 5.78712 21.3728C6.26144 21.0392 6.15604 20.0932 5.54996 19.2611ZM7.97224 17.5543C7.36616 16.7243 6.48644 16.3236 6.01009 16.6592C5.53375 16.9949 5.63712 17.9409 6.24523 18.7729C6.8513 19.6029 7.73102 20.0037 8.2094 19.668C8.68372 19.3303 8.57831 18.3864 7.97224 17.5543ZM15.5492 21.4969C15.7397 20.6343 16.5019 19.7351 17.2519 19.489C18.0019 19.2408 18.458 19.7392 18.2694 20.5997C18.0789 21.4623 17.3168 22.3615 16.5668 22.6097C15.8147 22.8558 15.3607 22.3574 15.5492 21.4969ZM12.1094 19.0699C12.2979 18.2074 13.0621 17.3082 13.8121 17.06C14.5641 16.8118 15.0181 17.3102 14.8296 18.1707C14.6411 19.0333 13.8769 19.9325 13.1269 20.1807C12.3749 20.4289 11.9188 19.9304 12.1094 19.0699ZM18.4539 12.5275L11.5236 16.5433C10.883 16.9155 10.5141 17.5523 10.5121 18.2969L10.4898 26.3101C10.4878 26.6621 10.6621 26.9652 10.9661 27.1422C11.2702 27.3192 11.6168 27.3192 11.9209 27.1422L14.8864 25.4252L18.8512 23.1284C19.4938 22.7561 19.8607 22.1194 19.8627 21.3769L19.8748 16.7894L19.885 13.3615C19.885 13.0096 19.7127 12.7065 19.4086 12.5295C19.1066 12.3505 18.758 12.3505 18.4539 12.5275ZM2.00878 11.551L8.92493 15.5586C9.5675 15.9309 10.3033 15.9309 10.9479 15.5586L17.864 11.551C18.1681 11.374 18.3424 11.0729 18.3424 10.721C18.3424 10.369 18.1681 10.0679 17.864 9.893L14.9026 8.17601L12.01 6.49971L11.0817 5.96061L10.4148 5.57409C10.1107 5.39913 9.76412 5.39913 9.46006 5.57409L4.97024 8.17601L2.00878 9.893C1.70472 10.0679 1.53243 10.3711 1.53243 10.721C1.53243 11.0729 1.70472 11.374 2.00878 11.551ZM1.45743 12.5661L8.3594 16.5656C9.00399 16.94 9.3729 17.5828 9.37088 18.3294L9.34655 26.3468C9.34655 26.6987 9.17223 26.9998 8.86818 27.1747C8.56413 27.3497 8.21751 27.3497 7.91548 27.1747L4.95605 25.4598L1.01149 23.1752C0.366897 22.8009 -0.0020187 22.158 8.30936e-06 21.4114L0.0141974 16.8342L0.0243324 13.3961C0.0263594 13.0442 0.200682 12.7431 0.502707 12.5682C0.806758 12.3912 1.15338 12.3912 1.45743 12.5661Z" fill="black"/>
<path d="M9.28595 9.51168L8.96203 9.2816C8.8083 9.17241 8.62506 9.11603 8.4123 9.11245L8.40111 9.11213C8.39365 9.11191 8.38801 9.113 8.38421 9.11539C8.22692 9.13086 8.08371 9.17667 7.95456 9.25283L7.52107 9.52491C7.43671 9.60235 7.38395 9.68443 7.3628 9.77116C7.34065 9.8928 7.41743 10.016 7.59311 10.1408C7.77246 10.2682 7.95359 10.3332 8.13649 10.336C8.34193 10.3344 8.63074 10.2902 9.00292 10.2035L10.0244 9.937C10.2989 9.87247 10.5612 9.84004 10.8114 9.8397C11.114 9.83586 11.4231 9.86715 11.7386 9.93355C12.0579 9.99756 12.3439 10.1193 12.5964 10.2986C13.0759 10.6392 13.3072 11.0401 13.2903 11.5012C13.2806 11.708 13.2078 11.9056 13.0717 12.0938C13.0292 12.145 12.9847 12.1974 12.9384 12.251L13.3611 12.5512L12.1918 13.2851L11.7801 12.9926C11.6745 13.0296 11.5653 13.0614 11.4525 13.0881C11.2231 13.1439 10.9869 13.1771 10.7438 13.1876L10.6319 13.1844C10.3221 13.1781 10.019 13.1332 9.72266 13.0499C9.52274 12.9893 9.33999 12.9155 9.17443 12.8284C9.10095 12.7864 9.02943 12.7407 8.95989 12.6913L8.62498 12.4534L9.79427 11.7195L10.1292 11.9574C10.2792 12.064 10.4569 12.119 10.6622 12.1223L10.6846 12.123C10.6921 12.1232 10.6976 12.1246 10.7013 12.1272C10.8587 12.1067 11.0001 12.0596 11.1254 11.9858L11.5589 11.7138C11.6508 11.6365 11.7017 11.5532 11.7117 11.4636C11.7377 11.3396 11.6665 11.2178 11.4981 11.0982C11.3151 10.9682 11.1321 10.9018 10.9492 10.8991C10.7401 10.8981 10.4494 10.9435 10.0771 11.0352L9.06678 11.302C8.78867 11.3639 8.5226 11.3962 8.26859 11.399C7.96979 11.4004 7.66073 11.3691 7.3414 11.3051C7.02588 11.2387 6.74184 11.1158 6.48929 10.9364C6.00981 10.5959 5.77852 10.195 5.79542 9.73389C5.80506 9.52706 5.87792 9.32952 6.014 9.14127C6.04908 9.08988 6.09162 9.03869 6.14162 8.98772L5.71887 8.68745L6.88816 7.95355L7.29992 8.24602C7.40188 8.20652 7.50925 8.1734 7.62205 8.14668C7.8589 8.09106 8.09695 8.05918 8.33618 8.05104L8.44812 8.05424C8.7617 8.0582 9.06477 8.10304 9.35734 8.18875C9.55741 8.24436 9.74015 8.3182 9.90557 8.41026C9.98286 8.4499 10.0581 8.49571 10.1313 8.54771L10.4552 8.77778L9.28595 9.51168Z" fill="white"/>
</g>
<defs>
<clipPath id="clip0_891_23563">
<rect width="19.887" height="24.3063" fill="white" transform="translate(0 3)"/>
</clipPath>
<clipPath id="clip1_891_23563">
<rect width="19.887" height="24.3063" fill="white" transform="translate(0 3)"/>
</clipPath>
</defs>
</svg>
